%TF.GenerationSoftware,KiCad,Pcbnew,9.0.6-9.0.6~ubuntu24.04.1*%
%TF.CreationDate,2025-12-05T21:36:49+01:00*%
%TF.ProjectId,pcb,7063622e-6b69-4636-9164-5f7063625858,rev?*%
%TF.SameCoordinates,Original*%
%TF.FileFunction,Copper,L2,Bot*%
%TF.FilePolarity,Positive*%
%FSLAX46Y46*%
G04 Gerber Fmt 4.6, Leading zero omitted, Abs format (unit mm)*
G04 Created by KiCad (PCBNEW 9.0.6-9.0.6~ubuntu24.04.1) date 2025-12-05 21:36:49*
%MOMM*%
%LPD*%
G01*
G04 APERTURE LIST*
%TA.AperFunction,ComponentPad*%
%ADD10C,2.000000*%
%TD*%
%TA.AperFunction,ComponentPad*%
%ADD11R,2.000000X2.000000*%
%TD*%
%TA.AperFunction,ComponentPad*%
%ADD12R,2.000000X1.200000*%
%TD*%
%TA.AperFunction,ComponentPad*%
%ADD13O,2.000000X1.200000*%
%TD*%
%TA.AperFunction,ComponentPad*%
%ADD14R,1.700000X1.700000*%
%TD*%
%TA.AperFunction,ComponentPad*%
%ADD15C,1.700000*%
%TD*%
%TA.AperFunction,Conductor*%
%ADD16C,0.200000*%
%TD*%
G04 APERTURE END LIST*
D10*
%TO.P,BZ1,2,-*%
%TO.N,unconnected-(BZ1---Pad2)*%
X10075000Y-6275000D03*
D11*
%TO.P,BZ1,1,+*%
%TO.N,unconnected-(BZ1-+-Pad1)*%
X2475000Y-6275000D03*
%TD*%
D12*
%TO.P,U1,1,3V3*%
%TO.N,Net-(J1-Pin_1)*%
X16000000Y-148680000D03*
D13*
%TO.P,U1,2,CHIP_PU*%
%TO.N,unconnected-(U1-CHIP_PU-Pad2)*%
X16000000Y-151220000D03*
%TO.P,U1,3,SENSOR_VP/GPIO36/ADC1_CH0*%
%TO.N,unconnected-(U1-SENSOR_VP{slash}GPIO36{slash}ADC1_CH0-Pad3)*%
X16000000Y-153760000D03*
%TO.P,U1,4,SENSOR_VN/GPIO39/ADC1_CH3*%
%TO.N,unconnected-(U1-SENSOR_VN{slash}GPIO39{slash}ADC1_CH3-Pad4)*%
X16000000Y-156300000D03*
%TO.P,U1,5,VDET_1/GPIO34/ADC1_CH6*%
%TO.N,unconnected-(U1-VDET_1{slash}GPIO34{slash}ADC1_CH6-Pad5)*%
X16000000Y-158840000D03*
%TO.P,U1,6,VDET_2/GPIO35/ADC1_CH7*%
%TO.N,unconnected-(U1-VDET_2{slash}GPIO35{slash}ADC1_CH7-Pad6)*%
X16000000Y-161380000D03*
%TO.P,U1,7,32K_XP/GPIO32/ADC1_CH4*%
%TO.N,unconnected-(U1-32K_XP{slash}GPIO32{slash}ADC1_CH4-Pad7)*%
X16000000Y-163920000D03*
%TO.P,U1,8,32K_XN/GPIO33/ADC1_CH5*%
%TO.N,unconnected-(U1-32K_XN{slash}GPIO33{slash}ADC1_CH5-Pad8)*%
X16000000Y-166460000D03*
%TO.P,U1,9,DAC_1/ADC2_CH8/GPIO25*%
%TO.N,unconnected-(U1-DAC_1{slash}ADC2_CH8{slash}GPIO25-Pad9)*%
X16000000Y-169000000D03*
%TO.P,U1,10,DAC_2/ADC2_CH9/GPIO26*%
%TO.N,unconnected-(U1-DAC_2{slash}ADC2_CH9{slash}GPIO26-Pad10)*%
X16000000Y-171540000D03*
%TO.P,U1,11,ADC2_CH7/GPIO27*%
%TO.N,unconnected-(U1-ADC2_CH7{slash}GPIO27-Pad11)*%
X16000000Y-174080000D03*
%TO.P,U1,12,MTMS/GPIO14/ADC2_CH6*%
%TO.N,unconnected-(U1-MTMS{slash}GPIO14{slash}ADC2_CH6-Pad12)*%
X16000000Y-176620000D03*
%TO.P,U1,13,MTDI/GPIO12/ADC2_CH5*%
%TO.N,unconnected-(U1-MTDI{slash}GPIO12{slash}ADC2_CH5-Pad13)*%
X16000000Y-179160000D03*
%TO.P,U1,14,GND*%
%TO.N,Net-(J1-Pin_2)*%
X16000000Y-181700000D03*
%TO.P,U1,15,MTCK/GPIO13/ADC2_CH4*%
%TO.N,unconnected-(U1-MTCK{slash}GPIO13{slash}ADC2_CH4-Pad15)*%
X16000000Y-184240000D03*
%TO.P,U1,16,SD_DATA2/GPIO9*%
%TO.N,Net-(J1-Pin_6)*%
X16000000Y-186780000D03*
%TO.P,U1,17,SD_DATA3/GPIO10*%
%TO.N,Net-(J1-Pin_7)*%
X16000000Y-189320000D03*
%TO.P,U1,18,CMD*%
%TO.N,unconnected-(U1-CMD-Pad18)*%
X16000000Y-191860000D03*
%TO.P,U1,19,5V*%
%TO.N,Net-(J2-Pin_1)*%
X16000000Y-194400000D03*
%TO.P,U1,20,SD_CLK/GPIO6*%
%TO.N,unconnected-(U1-SD_CLK{slash}GPIO6-Pad20)*%
X41396320Y-194397280D03*
%TO.P,U1,21,SD_DATA0/GPIO7*%
%TO.N,unconnected-(U1-SD_DATA0{slash}GPIO7-Pad21)*%
X41396320Y-191857280D03*
%TO.P,U1,22,SD_DATA1/GPIO8*%
%TO.N,unconnected-(U1-SD_DATA1{slash}GPIO8-Pad22)*%
X41400000Y-189320000D03*
%TO.P,U1,23,MTDO/GPIO15/ADC2_CH3*%
%TO.N,unconnected-(U1-MTDO{slash}GPIO15{slash}ADC2_CH3-Pad23)*%
X41400000Y-186780000D03*
%TO.P,U1,24,ADC2_CH2/GPIO2*%
%TO.N,unconnected-(U1-ADC2_CH2{slash}GPIO2-Pad24)*%
X41400000Y-184240000D03*
%TO.P,U1,25,GPIO0/BOOT/ADC2_CH1*%
%TO.N,unconnected-(U1-GPIO0{slash}BOOT{slash}ADC2_CH1-Pad25)*%
X41400000Y-181700000D03*
%TO.P,U1,26,ADC2_CH0/GPIO4*%
%TO.N,unconnected-(U1-ADC2_CH0{slash}GPIO4-Pad26)*%
X41400000Y-179160000D03*
%TO.P,U1,27,GPIO16*%
%TO.N,unconnected-(U1-GPIO16-Pad27)*%
X41400000Y-176620000D03*
%TO.P,U1,28,GPIO17*%
%TO.N,unconnected-(U1-GPIO17-Pad28)*%
X41400000Y-174080000D03*
%TO.P,U1,29,GPIO5*%
%TO.N,Net-(J1-Pin_5)*%
X41400000Y-171540000D03*
%TO.P,U1,30,GPIO18*%
%TO.N,Net-(J1-Pin_4)*%
X41400000Y-169000000D03*
%TO.P,U1,31,GPIO19*%
%TO.N,unconnected-(U1-GPIO19-Pad31)*%
X41400000Y-166460000D03*
%TO.P,U1,32,GND*%
%TO.N,Net-(J1-Pin_2)*%
X41400000Y-163920000D03*
%TO.P,U1,33,GPIO21*%
%TO.N,Net-(J2-Pin_4)*%
X41400000Y-161380000D03*
%TO.P,U1,34,U0RXD/GPIO3*%
%TO.N,unconnected-(U1-U0RXD{slash}GPIO3-Pad34)*%
X41400000Y-158840000D03*
%TO.P,U1,35,U0TXD/GPIO1*%
%TO.N,unconnected-(U1-U0TXD{slash}GPIO1-Pad35)*%
X41400000Y-156300000D03*
%TO.P,U1,36,GPIO22*%
%TO.N,Net-(J2-Pin_3)*%
X41400000Y-153760000D03*
%TO.P,U1,37,GPIO23*%
%TO.N,Net-(J1-Pin_3)*%
X41400000Y-151220000D03*
%TO.P,U1,38,GND*%
%TO.N,Net-(J1-Pin_2)*%
X41400000Y-148680000D03*
%TD*%
D14*
%TO.P,J1,1,Pin_1*%
%TO.N,Net-(J1-Pin_1)*%
X36700000Y-145500000D03*
D15*
%TO.P,J1,2,Pin_2*%
%TO.N,Net-(J1-Pin_2)*%
X34160000Y-145500000D03*
%TO.P,J1,3,Pin_3*%
%TO.N,Net-(J1-Pin_3)*%
X31620000Y-145500000D03*
%TO.P,J1,4,Pin_4*%
%TO.N,Net-(J1-Pin_4)*%
X29080000Y-145500000D03*
%TO.P,J1,5,Pin_5*%
%TO.N,Net-(J1-Pin_5)*%
X26540000Y-145500000D03*
%TO.P,J1,6,Pin_6*%
%TO.N,Net-(J1-Pin_6)*%
X24000000Y-145500000D03*
%TO.P,J1,7,Pin_7*%
%TO.N,Net-(J1-Pin_7)*%
X21460000Y-145500000D03*
%TD*%
D14*
%TO.P,J2,1,Pin_1*%
%TO.N,Net-(J2-Pin_1)*%
X26200000Y-177025000D03*
D15*
%TO.P,J2,2,Pin_2*%
%TO.N,Net-(J1-Pin_2)*%
X28740000Y-177025000D03*
%TO.P,J2,3,Pin_3*%
%TO.N,Net-(J2-Pin_3)*%
X31280000Y-177025000D03*
%TO.P,J2,4,Pin_4*%
%TO.N,Net-(J2-Pin_4)*%
X33820000Y-177025000D03*
%TD*%
D16*
%TO.N,Net-(J2-Pin_1)*%
X26200000Y-177025000D02*
X26200000Y-186300000D01*
X26200000Y-186300000D02*
X18100000Y-194400000D01*
X18100000Y-194400000D02*
X16000000Y-194400000D01*
%TO.N,Net-(J1-Pin_2)*%
X36000000Y-180000000D02*
X38000000Y-178000000D01*
X38000000Y-178000000D02*
X38000000Y-167320000D01*
X29500000Y-180000000D02*
X36000000Y-180000000D01*
X28740000Y-177025000D02*
X28740000Y-179240000D01*
X38000000Y-167320000D02*
X41400000Y-163920000D01*
X28740000Y-179240000D02*
X29500000Y-180000000D01*
%TO.N,Net-(J2-Pin_4)*%
X36120000Y-161380000D02*
X41400000Y-161380000D01*
X33820000Y-177025000D02*
X33820000Y-163680000D01*
X33820000Y-163680000D02*
X36120000Y-161380000D01*
%TO.N,Net-(J2-Pin_3)*%
X31280000Y-157220000D02*
X34740000Y-153760000D01*
X31280000Y-177025000D02*
X31280000Y-157220000D01*
X34740000Y-153760000D02*
X41400000Y-153760000D01*
%TD*%
M02*
