%TF.GenerationSoftware,KiCad,Pcbnew,9.0.6-9.0.6~ubuntu24.04.1*%
%TF.CreationDate,2025-12-05T21:36:50+01:00*%
%TF.ProjectId,pcb,7063622e-6b69-4636-9164-5f7063625858,rev?*%
%TF.SameCoordinates,Original*%
%TF.FileFunction,Legend,Bot*%
%TF.FilePolarity,Positive*%
%FSLAX46Y46*%
G04 Gerber Fmt 4.6, Leading zero omitted, Abs format (unit mm)*
G04 Created by KiCad (PCBNEW 9.0.6-9.0.6~ubuntu24.04.1) date 2025-12-05 21:36:50*
%MOMM*%
%LPD*%
G01*
G04 APERTURE LIST*
%ADD10C,0.100000*%
%ADD11C,0.150000*%
%ADD12C,0.125000*%
%ADD13C,0.120000*%
G04 APERTURE END LIST*
D10*
X32372419Y-148303884D02*
X31372419Y-148303884D01*
X31372419Y-148303884D02*
X31372419Y-148541979D01*
X31372419Y-148541979D02*
X31420038Y-148684836D01*
X31420038Y-148684836D02*
X31515276Y-148780074D01*
X31515276Y-148780074D02*
X31610514Y-148827693D01*
X31610514Y-148827693D02*
X31800990Y-148875312D01*
X31800990Y-148875312D02*
X31943847Y-148875312D01*
X31943847Y-148875312D02*
X32134323Y-148827693D01*
X32134323Y-148827693D02*
X32229561Y-148780074D01*
X32229561Y-148780074D02*
X32324800Y-148684836D01*
X32324800Y-148684836D02*
X32372419Y-148541979D01*
X32372419Y-148541979D02*
X32372419Y-148303884D01*
X32372419Y-149303884D02*
X31372419Y-149303884D01*
X32372419Y-149780074D02*
X31372419Y-149780074D01*
X31372419Y-149780074D02*
X32372419Y-150351502D01*
X32372419Y-150351502D02*
X31372419Y-150351502D01*
X28420038Y-172327693D02*
X28372419Y-172232455D01*
X28372419Y-172232455D02*
X28372419Y-172089598D01*
X28372419Y-172089598D02*
X28420038Y-171946741D01*
X28420038Y-171946741D02*
X28515276Y-171851503D01*
X28515276Y-171851503D02*
X28610514Y-171803884D01*
X28610514Y-171803884D02*
X28800990Y-171756265D01*
X28800990Y-171756265D02*
X28943847Y-171756265D01*
X28943847Y-171756265D02*
X29134323Y-171803884D01*
X29134323Y-171803884D02*
X29229561Y-171851503D01*
X29229561Y-171851503D02*
X29324800Y-171946741D01*
X29324800Y-171946741D02*
X29372419Y-172089598D01*
X29372419Y-172089598D02*
X29372419Y-172184836D01*
X29372419Y-172184836D02*
X29324800Y-172327693D01*
X29324800Y-172327693D02*
X29277180Y-172375312D01*
X29277180Y-172375312D02*
X28943847Y-172375312D01*
X28943847Y-172375312D02*
X28943847Y-172184836D01*
X29372419Y-172803884D02*
X28372419Y-172803884D01*
X28372419Y-172803884D02*
X29372419Y-173375312D01*
X29372419Y-173375312D02*
X28372419Y-173375312D01*
X29372419Y-173851503D02*
X28372419Y-173851503D01*
X28372419Y-173851503D02*
X28372419Y-174089598D01*
X28372419Y-174089598D02*
X28420038Y-174232455D01*
X28420038Y-174232455D02*
X28515276Y-174327693D01*
X28515276Y-174327693D02*
X28610514Y-174375312D01*
X28610514Y-174375312D02*
X28800990Y-174422931D01*
X28800990Y-174422931D02*
X28943847Y-174422931D01*
X28943847Y-174422931D02*
X29134323Y-174375312D01*
X29134323Y-174375312D02*
X29229561Y-174327693D01*
X29229561Y-174327693D02*
X29324800Y-174232455D01*
X29324800Y-174232455D02*
X29372419Y-174089598D01*
X29372419Y-174089598D02*
X29372419Y-173851503D01*
D11*
X19187030Y-193954819D02*
X19663220Y-193954819D01*
X19663220Y-193954819D02*
X19710839Y-194431009D01*
X19710839Y-194431009D02*
X19663220Y-194383390D01*
X19663220Y-194383390D02*
X19567982Y-194335771D01*
X19567982Y-194335771D02*
X19329887Y-194335771D01*
X19329887Y-194335771D02*
X19234649Y-194383390D01*
X19234649Y-194383390D02*
X19187030Y-194431009D01*
X19187030Y-194431009D02*
X19139411Y-194526247D01*
X19139411Y-194526247D02*
X19139411Y-194764342D01*
X19139411Y-194764342D02*
X19187030Y-194859580D01*
X19187030Y-194859580D02*
X19234649Y-194907200D01*
X19234649Y-194907200D02*
X19329887Y-194954819D01*
X19329887Y-194954819D02*
X19567982Y-194954819D01*
X19567982Y-194954819D02*
X19663220Y-194907200D01*
X19663220Y-194907200D02*
X19710839Y-194859580D01*
X18853696Y-193954819D02*
X18520363Y-194954819D01*
X18520363Y-194954819D02*
X18187030Y-193954819D01*
D10*
X34324800Y-171756265D02*
X34372419Y-171899122D01*
X34372419Y-171899122D02*
X34372419Y-172137217D01*
X34372419Y-172137217D02*
X34324800Y-172232455D01*
X34324800Y-172232455D02*
X34277180Y-172280074D01*
X34277180Y-172280074D02*
X34181942Y-172327693D01*
X34181942Y-172327693D02*
X34086704Y-172327693D01*
X34086704Y-172327693D02*
X33991466Y-172280074D01*
X33991466Y-172280074D02*
X33943847Y-172232455D01*
X33943847Y-172232455D02*
X33896228Y-172137217D01*
X33896228Y-172137217D02*
X33848609Y-171946741D01*
X33848609Y-171946741D02*
X33800990Y-171851503D01*
X33800990Y-171851503D02*
X33753371Y-171803884D01*
X33753371Y-171803884D02*
X33658133Y-171756265D01*
X33658133Y-171756265D02*
X33562895Y-171756265D01*
X33562895Y-171756265D02*
X33467657Y-171803884D01*
X33467657Y-171803884D02*
X33420038Y-171851503D01*
X33420038Y-171851503D02*
X33372419Y-171946741D01*
X33372419Y-171946741D02*
X33372419Y-172184836D01*
X33372419Y-172184836D02*
X33420038Y-172327693D01*
X34372419Y-172756265D02*
X33372419Y-172756265D01*
X33372419Y-172756265D02*
X33372419Y-172994360D01*
X33372419Y-172994360D02*
X33420038Y-173137217D01*
X33420038Y-173137217D02*
X33515276Y-173232455D01*
X33515276Y-173232455D02*
X33610514Y-173280074D01*
X33610514Y-173280074D02*
X33800990Y-173327693D01*
X33800990Y-173327693D02*
X33943847Y-173327693D01*
X33943847Y-173327693D02*
X34134323Y-173280074D01*
X34134323Y-173280074D02*
X34229561Y-173232455D01*
X34229561Y-173232455D02*
X34324800Y-173137217D01*
X34324800Y-173137217D02*
X34372419Y-172994360D01*
X34372419Y-172994360D02*
X34372419Y-172756265D01*
X34086704Y-173708646D02*
X34086704Y-174184836D01*
X34372419Y-173613408D02*
X33372419Y-173946741D01*
X33372419Y-173946741D02*
X34372419Y-174280074D01*
X33920038Y-148827693D02*
X33872419Y-148732455D01*
X33872419Y-148732455D02*
X33872419Y-148589598D01*
X33872419Y-148589598D02*
X33920038Y-148446741D01*
X33920038Y-148446741D02*
X34015276Y-148351503D01*
X34015276Y-148351503D02*
X34110514Y-148303884D01*
X34110514Y-148303884D02*
X34300990Y-148256265D01*
X34300990Y-148256265D02*
X34443847Y-148256265D01*
X34443847Y-148256265D02*
X34634323Y-148303884D01*
X34634323Y-148303884D02*
X34729561Y-148351503D01*
X34729561Y-148351503D02*
X34824800Y-148446741D01*
X34824800Y-148446741D02*
X34872419Y-148589598D01*
X34872419Y-148589598D02*
X34872419Y-148684836D01*
X34872419Y-148684836D02*
X34824800Y-148827693D01*
X34824800Y-148827693D02*
X34777180Y-148875312D01*
X34777180Y-148875312D02*
X34443847Y-148875312D01*
X34443847Y-148875312D02*
X34443847Y-148684836D01*
X34872419Y-149303884D02*
X33872419Y-149303884D01*
X33872419Y-149303884D02*
X34872419Y-149875312D01*
X34872419Y-149875312D02*
X33872419Y-149875312D01*
X34872419Y-150351503D02*
X33872419Y-150351503D01*
X33872419Y-150351503D02*
X33872419Y-150589598D01*
X33872419Y-150589598D02*
X33920038Y-150732455D01*
X33920038Y-150732455D02*
X34015276Y-150827693D01*
X34015276Y-150827693D02*
X34110514Y-150875312D01*
X34110514Y-150875312D02*
X34300990Y-150922931D01*
X34300990Y-150922931D02*
X34443847Y-150922931D01*
X34443847Y-150922931D02*
X34634323Y-150875312D01*
X34634323Y-150875312D02*
X34729561Y-150827693D01*
X34729561Y-150827693D02*
X34824800Y-150732455D01*
X34824800Y-150732455D02*
X34872419Y-150589598D01*
X34872419Y-150589598D02*
X34872419Y-150351503D01*
X21872419Y-148375312D02*
X21396228Y-148041979D01*
X21872419Y-147803884D02*
X20872419Y-147803884D01*
X20872419Y-147803884D02*
X20872419Y-148184836D01*
X20872419Y-148184836D02*
X20920038Y-148280074D01*
X20920038Y-148280074D02*
X20967657Y-148327693D01*
X20967657Y-148327693D02*
X21062895Y-148375312D01*
X21062895Y-148375312D02*
X21205752Y-148375312D01*
X21205752Y-148375312D02*
X21300990Y-148327693D01*
X21300990Y-148327693D02*
X21348609Y-148280074D01*
X21348609Y-148280074D02*
X21396228Y-148184836D01*
X21396228Y-148184836D02*
X21396228Y-147803884D01*
X21824800Y-148756265D02*
X21872419Y-148899122D01*
X21872419Y-148899122D02*
X21872419Y-149137217D01*
X21872419Y-149137217D02*
X21824800Y-149232455D01*
X21824800Y-149232455D02*
X21777180Y-149280074D01*
X21777180Y-149280074D02*
X21681942Y-149327693D01*
X21681942Y-149327693D02*
X21586704Y-149327693D01*
X21586704Y-149327693D02*
X21491466Y-149280074D01*
X21491466Y-149280074D02*
X21443847Y-149232455D01*
X21443847Y-149232455D02*
X21396228Y-149137217D01*
X21396228Y-149137217D02*
X21348609Y-148946741D01*
X21348609Y-148946741D02*
X21300990Y-148851503D01*
X21300990Y-148851503D02*
X21253371Y-148803884D01*
X21253371Y-148803884D02*
X21158133Y-148756265D01*
X21158133Y-148756265D02*
X21062895Y-148756265D01*
X21062895Y-148756265D02*
X20967657Y-148803884D01*
X20967657Y-148803884D02*
X20920038Y-148851503D01*
X20920038Y-148851503D02*
X20872419Y-148946741D01*
X20872419Y-148946741D02*
X20872419Y-149184836D01*
X20872419Y-149184836D02*
X20920038Y-149327693D01*
X20872419Y-149613408D02*
X20872419Y-150184836D01*
X21872419Y-149899122D02*
X20872419Y-149899122D01*
D12*
X36371119Y-148177474D02*
X37371119Y-148510807D01*
X37371119Y-148510807D02*
X36371119Y-148844140D01*
X37275880Y-149748902D02*
X37323500Y-149701283D01*
X37323500Y-149701283D02*
X37371119Y-149558426D01*
X37371119Y-149558426D02*
X37371119Y-149463188D01*
X37371119Y-149463188D02*
X37323500Y-149320331D01*
X37323500Y-149320331D02*
X37228261Y-149225093D01*
X37228261Y-149225093D02*
X37133023Y-149177474D01*
X37133023Y-149177474D02*
X36942547Y-149129855D01*
X36942547Y-149129855D02*
X36799690Y-149129855D01*
X36799690Y-149129855D02*
X36609214Y-149177474D01*
X36609214Y-149177474D02*
X36513976Y-149225093D01*
X36513976Y-149225093D02*
X36418738Y-149320331D01*
X36418738Y-149320331D02*
X36371119Y-149463188D01*
X36371119Y-149463188D02*
X36371119Y-149558426D01*
X36371119Y-149558426D02*
X36418738Y-149701283D01*
X36418738Y-149701283D02*
X36466357Y-149748902D01*
X37275880Y-150748902D02*
X37323500Y-150701283D01*
X37323500Y-150701283D02*
X37371119Y-150558426D01*
X37371119Y-150558426D02*
X37371119Y-150463188D01*
X37371119Y-150463188D02*
X37323500Y-150320331D01*
X37323500Y-150320331D02*
X37228261Y-150225093D01*
X37228261Y-150225093D02*
X37133023Y-150177474D01*
X37133023Y-150177474D02*
X36942547Y-150129855D01*
X36942547Y-150129855D02*
X36799690Y-150129855D01*
X36799690Y-150129855D02*
X36609214Y-150177474D01*
X36609214Y-150177474D02*
X36513976Y-150225093D01*
X36513976Y-150225093D02*
X36418738Y-150320331D01*
X36418738Y-150320331D02*
X36371119Y-150463188D01*
X36371119Y-150463188D02*
X36371119Y-150558426D01*
X36371119Y-150558426D02*
X36418738Y-150701283D01*
X36418738Y-150701283D02*
X36466357Y-150748902D01*
D10*
X24372419Y-148303884D02*
X23372419Y-148303884D01*
X23372419Y-148303884D02*
X23372419Y-148541979D01*
X23372419Y-148541979D02*
X23420038Y-148684836D01*
X23420038Y-148684836D02*
X23515276Y-148780074D01*
X23515276Y-148780074D02*
X23610514Y-148827693D01*
X23610514Y-148827693D02*
X23800990Y-148875312D01*
X23800990Y-148875312D02*
X23943847Y-148875312D01*
X23943847Y-148875312D02*
X24134323Y-148827693D01*
X24134323Y-148827693D02*
X24229561Y-148780074D01*
X24229561Y-148780074D02*
X24324800Y-148684836D01*
X24324800Y-148684836D02*
X24372419Y-148541979D01*
X24372419Y-148541979D02*
X24372419Y-148303884D01*
X24277180Y-149875312D02*
X24324800Y-149827693D01*
X24324800Y-149827693D02*
X24372419Y-149684836D01*
X24372419Y-149684836D02*
X24372419Y-149589598D01*
X24372419Y-149589598D02*
X24324800Y-149446741D01*
X24324800Y-149446741D02*
X24229561Y-149351503D01*
X24229561Y-149351503D02*
X24134323Y-149303884D01*
X24134323Y-149303884D02*
X23943847Y-149256265D01*
X23943847Y-149256265D02*
X23800990Y-149256265D01*
X23800990Y-149256265D02*
X23610514Y-149303884D01*
X23610514Y-149303884D02*
X23515276Y-149351503D01*
X23515276Y-149351503D02*
X23420038Y-149446741D01*
X23420038Y-149446741D02*
X23372419Y-149589598D01*
X23372419Y-149589598D02*
X23372419Y-149684836D01*
X23372419Y-149684836D02*
X23420038Y-149827693D01*
X23420038Y-149827693D02*
X23467657Y-149875312D01*
X29277180Y-148875312D02*
X29324800Y-148827693D01*
X29324800Y-148827693D02*
X29372419Y-148684836D01*
X29372419Y-148684836D02*
X29372419Y-148589598D01*
X29372419Y-148589598D02*
X29324800Y-148446741D01*
X29324800Y-148446741D02*
X29229561Y-148351503D01*
X29229561Y-148351503D02*
X29134323Y-148303884D01*
X29134323Y-148303884D02*
X28943847Y-148256265D01*
X28943847Y-148256265D02*
X28800990Y-148256265D01*
X28800990Y-148256265D02*
X28610514Y-148303884D01*
X28610514Y-148303884D02*
X28515276Y-148351503D01*
X28515276Y-148351503D02*
X28420038Y-148446741D01*
X28420038Y-148446741D02*
X28372419Y-148589598D01*
X28372419Y-148589598D02*
X28372419Y-148684836D01*
X28372419Y-148684836D02*
X28420038Y-148827693D01*
X28420038Y-148827693D02*
X28467657Y-148875312D01*
X29372419Y-149780074D02*
X29372419Y-149303884D01*
X29372419Y-149303884D02*
X28372419Y-149303884D01*
X29372419Y-150113408D02*
X28372419Y-150113408D01*
X29372419Y-150684836D02*
X28800990Y-150256265D01*
X28372419Y-150684836D02*
X28943847Y-150113408D01*
X31824800Y-171756265D02*
X31872419Y-171899122D01*
X31872419Y-171899122D02*
X31872419Y-172137217D01*
X31872419Y-172137217D02*
X31824800Y-172232455D01*
X31824800Y-172232455D02*
X31777180Y-172280074D01*
X31777180Y-172280074D02*
X31681942Y-172327693D01*
X31681942Y-172327693D02*
X31586704Y-172327693D01*
X31586704Y-172327693D02*
X31491466Y-172280074D01*
X31491466Y-172280074D02*
X31443847Y-172232455D01*
X31443847Y-172232455D02*
X31396228Y-172137217D01*
X31396228Y-172137217D02*
X31348609Y-171946741D01*
X31348609Y-171946741D02*
X31300990Y-171851503D01*
X31300990Y-171851503D02*
X31253371Y-171803884D01*
X31253371Y-171803884D02*
X31158133Y-171756265D01*
X31158133Y-171756265D02*
X31062895Y-171756265D01*
X31062895Y-171756265D02*
X30967657Y-171803884D01*
X30967657Y-171803884D02*
X30920038Y-171851503D01*
X30920038Y-171851503D02*
X30872419Y-171946741D01*
X30872419Y-171946741D02*
X30872419Y-172184836D01*
X30872419Y-172184836D02*
X30920038Y-172327693D01*
X31777180Y-173327693D02*
X31824800Y-173280074D01*
X31824800Y-173280074D02*
X31872419Y-173137217D01*
X31872419Y-173137217D02*
X31872419Y-173041979D01*
X31872419Y-173041979D02*
X31824800Y-172899122D01*
X31824800Y-172899122D02*
X31729561Y-172803884D01*
X31729561Y-172803884D02*
X31634323Y-172756265D01*
X31634323Y-172756265D02*
X31443847Y-172708646D01*
X31443847Y-172708646D02*
X31300990Y-172708646D01*
X31300990Y-172708646D02*
X31110514Y-172756265D01*
X31110514Y-172756265D02*
X31015276Y-172803884D01*
X31015276Y-172803884D02*
X30920038Y-172899122D01*
X30920038Y-172899122D02*
X30872419Y-173041979D01*
X30872419Y-173041979D02*
X30872419Y-173137217D01*
X30872419Y-173137217D02*
X30920038Y-173280074D01*
X30920038Y-173280074D02*
X30967657Y-173327693D01*
X31872419Y-174232455D02*
X31872419Y-173756265D01*
X31872419Y-173756265D02*
X30872419Y-173756265D01*
X26777180Y-148875312D02*
X26824800Y-148827693D01*
X26824800Y-148827693D02*
X26872419Y-148684836D01*
X26872419Y-148684836D02*
X26872419Y-148589598D01*
X26872419Y-148589598D02*
X26824800Y-148446741D01*
X26824800Y-148446741D02*
X26729561Y-148351503D01*
X26729561Y-148351503D02*
X26634323Y-148303884D01*
X26634323Y-148303884D02*
X26443847Y-148256265D01*
X26443847Y-148256265D02*
X26300990Y-148256265D01*
X26300990Y-148256265D02*
X26110514Y-148303884D01*
X26110514Y-148303884D02*
X26015276Y-148351503D01*
X26015276Y-148351503D02*
X25920038Y-148446741D01*
X25920038Y-148446741D02*
X25872419Y-148589598D01*
X25872419Y-148589598D02*
X25872419Y-148684836D01*
X25872419Y-148684836D02*
X25920038Y-148827693D01*
X25920038Y-148827693D02*
X25967657Y-148875312D01*
X26824800Y-149256265D02*
X26872419Y-149399122D01*
X26872419Y-149399122D02*
X26872419Y-149637217D01*
X26872419Y-149637217D02*
X26824800Y-149732455D01*
X26824800Y-149732455D02*
X26777180Y-149780074D01*
X26777180Y-149780074D02*
X26681942Y-149827693D01*
X26681942Y-149827693D02*
X26586704Y-149827693D01*
X26586704Y-149827693D02*
X26491466Y-149780074D01*
X26491466Y-149780074D02*
X26443847Y-149732455D01*
X26443847Y-149732455D02*
X26396228Y-149637217D01*
X26396228Y-149637217D02*
X26348609Y-149446741D01*
X26348609Y-149446741D02*
X26300990Y-149351503D01*
X26300990Y-149351503D02*
X26253371Y-149303884D01*
X26253371Y-149303884D02*
X26158133Y-149256265D01*
X26158133Y-149256265D02*
X26062895Y-149256265D01*
X26062895Y-149256265D02*
X25967657Y-149303884D01*
X25967657Y-149303884D02*
X25920038Y-149351503D01*
X25920038Y-149351503D02*
X25872419Y-149446741D01*
X25872419Y-149446741D02*
X25872419Y-149684836D01*
X25872419Y-149684836D02*
X25920038Y-149827693D01*
X25372419Y-172161027D02*
X26372419Y-172494360D01*
X26372419Y-172494360D02*
X25372419Y-172827693D01*
X26372419Y-173161027D02*
X25372419Y-173161027D01*
X26372419Y-173637217D02*
X25372419Y-173637217D01*
X25372419Y-173637217D02*
X26372419Y-174208645D01*
X26372419Y-174208645D02*
X25372419Y-174208645D01*
D13*
%TO.C,J1*%
X20080000Y-141350000D02*
X38080000Y-141350000D01*
X20080000Y-144110000D02*
X20080000Y-141350000D01*
X21030000Y-135350000D02*
X21030000Y-141350000D01*
X21030000Y-144422642D02*
X21030000Y-144110000D01*
X21890000Y-135350000D02*
X21030000Y-135350000D01*
X21890000Y-141350000D02*
X21890000Y-135350000D01*
X21890000Y-144422642D02*
X21890000Y-144110000D01*
X22730000Y-144110000D02*
X22730000Y-141350000D01*
X23570000Y-135350000D02*
X23570000Y-141350000D01*
X23570000Y-144422642D02*
X23570000Y-144110000D01*
X24430000Y-135350000D02*
X23570000Y-135350000D01*
X24430000Y-141350000D02*
X24430000Y-135350000D01*
X24430000Y-144422642D02*
X24430000Y-144110000D01*
X25270000Y-144110000D02*
X25270000Y-141350000D01*
X26110000Y-135350000D02*
X26110000Y-141350000D01*
X26110000Y-144422642D02*
X26110000Y-144110000D01*
X26970000Y-135350000D02*
X26110000Y-135350000D01*
X26970000Y-141350000D02*
X26970000Y-135350000D01*
X26970000Y-144422642D02*
X26970000Y-144110000D01*
X27810000Y-144110000D02*
X27810000Y-141350000D01*
X28650000Y-135350000D02*
X28650000Y-141350000D01*
X28650000Y-144422642D02*
X28650000Y-144110000D01*
X29510000Y-135350000D02*
X28650000Y-135350000D01*
X29510000Y-141350000D02*
X29510000Y-135350000D01*
X29510000Y-144422642D02*
X29510000Y-144110000D01*
X30350000Y-144110000D02*
X30350000Y-141350000D01*
X31190000Y-135350000D02*
X31190000Y-141350000D01*
X31190000Y-144422642D02*
X31190000Y-144110000D01*
X32050000Y-135350000D02*
X31190000Y-135350000D01*
X32050000Y-141350000D02*
X32050000Y-135350000D01*
X32050000Y-144422642D02*
X32050000Y-144110000D01*
X32890000Y-144110000D02*
X32890000Y-141350000D01*
X33730000Y-135350000D02*
X33730000Y-141350000D01*
X33730000Y-144422642D02*
X33730000Y-144110000D01*
X34590000Y-135350000D02*
X33730000Y-135350000D01*
X34590000Y-141350000D02*
X34590000Y-135350000D01*
X34590000Y-144422642D02*
X34590000Y-144110000D01*
X35430000Y-144110000D02*
X35430000Y-141350000D01*
X36270000Y-144340000D02*
X36270000Y-144110000D01*
X36700000Y-146770000D02*
X37970000Y-146770000D01*
X37130000Y-144340000D02*
X37130000Y-144110000D01*
X37970000Y-146770000D02*
X37970000Y-145500000D01*
X38080000Y-141350000D02*
X38080000Y-144110000D01*
X38080000Y-144110000D02*
X20080000Y-144110000D01*
X37130000Y-141350000D02*
X36270000Y-141350000D01*
X36270000Y-135350000D01*
X37130000Y-135350000D01*
X37130000Y-141350000D01*
G36*
X37130000Y-141350000D02*
G01*
X36270000Y-141350000D01*
X36270000Y-135350000D01*
X37130000Y-135350000D01*
X37130000Y-141350000D01*
G37*
%TO.C,J2*%
X24870000Y-177025000D02*
X24870000Y-178355000D01*
X24870000Y-178355000D02*
X26200000Y-178355000D01*
X27470000Y-175695000D02*
X27470000Y-178355000D01*
X27470000Y-175695000D02*
X35150000Y-175695000D01*
X27470000Y-178355000D02*
X35150000Y-178355000D01*
X35150000Y-175695000D02*
X35150000Y-178355000D01*
%TD*%
M02*
