M48
; DRILL file {KiCad 9.0.6-9.0.6~ubuntu24.04.1} date 2025-12-05T21:37:06+0100
; FORMAT={-:-/ absolute / metric / decimal}
; #@! TF.CreationDate,2025-12-05T21:37:06+01:00
; #@! TF.GenerationSoftware,Kicad,Pcbnew,9.0.6-9.0.6~ubuntu24.04.1
; #@! TF.FileFunction,Plated,1,2,PTH
FMAT,2
METRIC
; #@! TA.AperFunction,Plated,PTH,ComponentDrill
T1C0.800
; #@! TA.AperFunction,Plated,PTH,ComponentDrill
T2C1.000
%
G90
G05
T1
X16.0Y-148.68
X16.0Y-151.22
X16.0Y-153.76
X16.0Y-156.3
X16.0Y-158.84
X16.0Y-161.38
X16.0Y-163.92
X16.0Y-166.46
X16.0Y-169.0
X16.0Y-171.54
X16.0Y-174.08
X16.0Y-176.62
X16.0Y-179.16
X16.0Y-181.7
X16.0Y-184.24
X16.0Y-186.78
X16.0Y-189.32
X16.0Y-191.86
X16.0Y-194.4
X41.396Y-191.857
X41.396Y-194.397
X41.4Y-148.68
X41.4Y-151.22
X41.4Y-153.76
X41.4Y-156.3
X41.4Y-158.84
X41.4Y-161.38
X41.4Y-163.92
X41.4Y-166.46
X41.4Y-169.0
X41.4Y-171.54
X41.4Y-174.08
X41.4Y-176.62
X41.4Y-179.16
X41.4Y-181.7
X41.4Y-184.24
X41.4Y-186.78
X41.4Y-189.32
T2
X2.475Y-6.275
X10.075Y-6.275
X21.46Y-145.5
X24.0Y-145.5
X26.2Y-177.025
X26.54Y-145.5
X28.74Y-177.025
X29.08Y-145.5
X31.28Y-177.025
X31.62Y-145.5
X33.82Y-177.025
X34.16Y-145.5
X36.7Y-145.5
M30
