%TF.GenerationSoftware,KiCad,Pcbnew,9.0.6-9.0.6~ubuntu24.04.1*%
%TF.CreationDate,2025-12-05T21:36:50+01:00*%
%TF.ProjectId,pcb,7063622e-6b69-4636-9164-5f7063625858,rev?*%
%TF.SameCoordinates,Original*%
%TF.FileFunction,Legend,Top*%
%TF.FilePolarity,Positive*%
%FSLAX46Y46*%
G04 Gerber Fmt 4.6, Leading zero omitted, Abs format (unit mm)*
G04 Created by KiCad (PCBNEW 9.0.6-9.0.6~ubuntu24.04.1) date 2025-12-05 21:36:50*
%MOMM*%
%LPD*%
G01*
G04 APERTURE LIST*
%ADD10C,0.150000*%
%ADD11C,0.120000*%
G04 APERTURE END LIST*
D10*
X5394047Y993990D02*
X5536904Y946371D01*
X5536904Y946371D02*
X5584523Y898752D01*
X5584523Y898752D02*
X5632142Y803514D01*
X5632142Y803514D02*
X5632142Y660657D01*
X5632142Y660657D02*
X5584523Y565419D01*
X5584523Y565419D02*
X5536904Y517800D01*
X5536904Y517800D02*
X5441666Y470180D01*
X5441666Y470180D02*
X5060714Y470180D01*
X5060714Y470180D02*
X5060714Y1470180D01*
X5060714Y1470180D02*
X5394047Y1470180D01*
X5394047Y1470180D02*
X5489285Y1422561D01*
X5489285Y1422561D02*
X5536904Y1374942D01*
X5536904Y1374942D02*
X5584523Y1279704D01*
X5584523Y1279704D02*
X5584523Y1184466D01*
X5584523Y1184466D02*
X5536904Y1089228D01*
X5536904Y1089228D02*
X5489285Y1041609D01*
X5489285Y1041609D02*
X5394047Y993990D01*
X5394047Y993990D02*
X5060714Y993990D01*
X5965476Y1470180D02*
X6632142Y1470180D01*
X6632142Y1470180D02*
X5965476Y470180D01*
X5965476Y470180D02*
X6632142Y470180D01*
X7536904Y470180D02*
X6965476Y470180D01*
X7251190Y470180D02*
X7251190Y1470180D01*
X7251190Y1470180D02*
X7155952Y1327323D01*
X7155952Y1327323D02*
X7060714Y1232085D01*
X7060714Y1232085D02*
X6965476Y1184466D01*
X2084048Y-3808866D02*
X2845953Y-3808866D01*
X2465000Y-4189819D02*
X2465000Y-3427914D01*
D11*
%TO.C,BZ1*%
X12375000Y-6275000D02*
G75*
G02*
X175000Y-6275000I-6100000J0D01*
G01*
X175000Y-6275000D02*
G75*
G02*
X12375000Y-6275000I6100000J0D01*
G01*
%TO.C,U1*%
X14500000Y-195500000D02*
X42899999Y-195500000D01*
X14500001Y-147580000D02*
X14500000Y-195500000D01*
X19730120Y-141666880D02*
X37713320Y-141666880D01*
X19730120Y-147559680D02*
X19730120Y-141666880D01*
X37713320Y-141666880D02*
X37713320Y-147559680D01*
X42899999Y-195500000D02*
X42900000Y-147580000D01*
X42900000Y-147580000D02*
X14500001Y-147580000D01*
%TD*%
M02*
